<?xml version="1.0" encoding="utf-8"?>
<!-- Generator: Adobe Illustrator 25.4.2, SVG Export Plug-In . SVG Version: 6.00 Build 0)  -->
<svg version="1.1" id="Capa_1" xmlns="http://www.w3.org/2000/svg" xmlns:xlink="http://www.w3.org/1999/xlink" x="0px" y="0px"
	 viewBox="0 0 171.9 178.9" style="enable-background:new 0 0 171.9 178.9;" xml:space="preserve">
<style type="text/css">
	.st0{fill:#22B573;}
	.st1{fill:none;stroke:#FFFFFF;stroke-width:2.5;stroke-linecap:round;stroke-miterlimit:10;}
</style>
<g>
	<path class="st0" d="M153,178.9H18.8C8.4,178.9,0,170.5,0,160.1V18.8C0,8.4,8.4,0,18.8,0H153c10.4,0,18.8,8.4,18.8,18.8v141.3
		C171.9,170.5,163.4,178.9,153,178.9z"/>
	<g>
		<path class="st1" d="M44.6,127.6V97c0-2.6,2.1-4.6,4.6-4.6h73.9c2.6,0,4.6,2.1,4.6,4.6v30.6"/>
		<path class="st1" d="M53.7,92.1V72.5c0-2.6,2.1-4.6,4.6-4.6h55.6c2.6,0,4.6,2.1,4.6,4.6v19.9"/>
		<path class="st1" d="M65.2,40.9l-5.8,11.5c0,0-1,6.2,5.5,6.2c0,0,6.2,0,5.8-6.2L65.2,40.9z"/>
		<path class="st1" d="M53.9,78.5c0,0,3.8,3.5,11.8-1.3c7.9-4.8,15.9,2.6,15.9,2.6s4.8,4.6,11.8-2.6c5.1-5.3,14.2,1.4,14.2,1.4
			s4.8,3.4,10.6,1.2"/>
		<path class="st1" d="M44.9,105.8c0,0,5.4,3.1,15.5-1.7c10.2-4.8,20.3,2.6,20.3,2.6s5.6,6,15.1-2.6c6.2-5.6,18.2,1.4,18.2,1.4
			s6.2,3.4,13.5,1.2"/>
		<line class="st1" x1="65" y1="58.7" x2="65" y2="67.3"/>
		<path class="st1" d="M86.4,40.9l-5.8,11.5c0,0-1,6.2,5.5,6.2c0,0,6.2,0,5.8-6.2L86.4,40.9z"/>
		<line class="st1" x1="86.1" y1="58.7" x2="86.1" y2="67.3"/>
		<path class="st1" d="M108,40.9l-5.8,11.5c0,0-1,6.2,5.5,6.2c0,0,6.2,0,5.8-6.2L108,40.9z"/>
		<line class="st1" x1="107.8" y1="58.7" x2="107.8" y2="67.3"/>
		<line class="st1" x1="38" y1="127.9" x2="134.8" y2="127.9"/>
	</g>
</g>
</svg>
