<?xml version="1.0" encoding="utf-8"?>
<!-- Generator: Adobe Illustrator 25.4.2, SVG Export Plug-In . SVG Version: 6.00 Build 0)  -->
<svg version="1.1" id="Capa_1" xmlns="http://www.w3.org/2000/svg" xmlns:xlink="http://www.w3.org/1999/xlink" x="0px" y="0px"
	 viewBox="0 0 171.9 178.9" style="enable-background:new 0 0 171.9 178.9;" xml:space="preserve">
<style type="text/css">
	.st0{fill:#FF7BAC;}
	.st1{fill:none;stroke:#FFFFFF;stroke-width:2.5;stroke-linecap:round;stroke-miterlimit:10;}
</style>
<g>
	<path class="st0" d="M153,178.9H18.8C8.4,178.9,0,170.5,0,160.1V18.8C0,8.4,8.4,0,18.8,0H153c10.4,0,18.8,8.4,18.8,18.8v141.3
		C171.9,170.5,163.4,178.9,153,178.9z"/>
	<g>
		<path class="st1" d="M92.2,109h31.3c2.6,0,4.7,2.1,4.7,4.7v0c0,2.6-2.1,4.7-4.7,4.7H48.1c-2.6,0-4.7-2.1-4.7-4.7v0
			c0-2.6,2.1-4.7,4.7-4.7H79"/>
		<circle class="st1" cx="39.5" cy="69" r="6.3"/>
		<circle class="st1" cx="131.9" cy="69" r="6.3"/>
		<circle class="st1" cx="85.6" cy="56.2" r="6.3"/>
		<line class="st1" x1="40.7" y1="75.3" x2="46.6" y2="109"/>
		<polyline class="st1" points="44,73.5 64.1,96.2 82.6,61.9 		"/>
		<line class="st1" x1="130.8" y1="75.3" x2="124.9" y2="109"/>
		<polyline class="st1" points="88.9,61.9 107.4,96.2 127.5,73.8 		"/>
		<path class="st1" d="M52.8,83.6c2.2-8.4,9.9-14.6,19.1-14.6c2.2,0,4.3,0.4,6.3,1"/>
		<path class="st1" d="M118.8,83.6c-2.2-8.4-9.9-14.6-19.1-14.6c-2.2,0-4.3,0.4-6.3,1"/>
		<line class="st1" x1="84" y1="109" x2="87.4" y2="109"/>
	</g>
</g>
</svg>
