<?xml version="1.0" encoding="utf-8"?>
<!-- Generator: Adobe Illustrator 25.4.2, SVG Export Plug-In . SVG Version: 6.00 Build 0)  -->
<svg version="1.1" id="Capa_1" xmlns="http://www.w3.org/2000/svg" xmlns:xlink="http://www.w3.org/1999/xlink" x="0px" y="0px"
	 viewBox="0 0 171.9 178.9" style="enable-background:new 0 0 171.9 178.9;" xml:space="preserve">
<style type="text/css">
	.st0{fill:#63D6C3;}
	.st1{fill:none;stroke:#FFFFFF;stroke-width:2.5;stroke-miterlimit:10;}
</style>
<g>
	<path class="st0" d="M153,178.9H18.8C8.4,178.9,0,170.5,0,160.1V18.8C0,8.4,8.4,0,18.8,0H153c10.4,0,18.8,8.4,18.8,18.8v141.3
		C171.9,170.5,163.4,178.9,153,178.9z"/>
	<g>
		<g>
			<ellipse class="st1" cx="105.1" cy="98.4" rx="25" ry="25.6"/>
			<ellipse class="st1" cx="67.2" cy="96.1" rx="27.1" ry="27.8"/>
		</g>
		<path class="st1" d="M92.5,61.9c0.2,0.1,0.5,0.1,0.7,0.1s0.5,0,0.7-0.1c0.5-0.2,11.2-4.7,11.2-12.6c0-4.1-3.4-7.5-7.6-7.5
			c-1.6,0-3.1,0.5-4.4,1.4c-1.3-0.9-2.8-1.4-4.4-1.4c-4.2,0-7.6,3.4-7.6,7.5C81.3,57.3,92.1,61.8,92.5,61.9L92.5,61.9z"/>
	</g>
</g>
</svg>
