<?xml version="1.0" encoding="utf-8"?>
<!-- Generator: Adobe Illustrator 25.4.2, SVG Export Plug-In . SVG Version: 6.00 Build 0)  -->
<svg version="1.1" id="Capa_1" xmlns="http://www.w3.org/2000/svg" xmlns:xlink="http://www.w3.org/1999/xlink" x="0px" y="0px"
	 viewBox="0 0 171.9 178.9" style="enable-background:new 0 0 171.9 178.9;" xml:space="preserve">
<style type="text/css">
	.st0{fill:#D07A6F;}
	.st1{fill:none;stroke:#FFFFFF;stroke-width:2.5;stroke-miterlimit:10;}
</style>
<g>
	<path class="st0" d="M153,178.9H18.8C8.4,178.9,0,170.5,0,160.1V18.8C0,8.4,8.4,0,18.8,0H153c10.4,0,18.8,8.4,18.8,18.8v141.3
		C171.9,170.5,163.4,178.9,153,178.9z"/>
	<g>
		<polygon class="st1" points="35.2,70.3 87.6,45.7 139.2,70 87.6,94.8 		"/>
		<path class="st1" d="M52.4,78.5v21.8c0,0,33.3,22.2,69.5,0V78.5"/>
		<line class="st1" x1="131.8" y1="74" x2="131.8" y2="103.6"/>
		<circle class="st1" cx="131.6" cy="108.9" r="5.3"/>
		<path class="st1" d="M134.7,113.2l2.9,13.3c-5,3.6-12.1,0-12.1,0l2.7-13.4"/>
	</g>
</g>
</svg>
